<svg width="230" height="55" viewBox="0 0 230 55" fill="none" xmlns="http://www.w3.org/2000/svg">
<rect width="230" height="55" rx="6" fill="#254D90"/>
<rect x="5" y="5" width="45" height="45" rx="10" fill="white"/>
<path d="M75.6219 27.9072C75.6219 29.0329 75.4122 29.974 74.993 30.7305C74.5737 31.4824 73.9653 32.0498 73.1678 32.4326C72.3702 32.8109 71.4087 33 70.283 33H67.5076V23.0059H70.5838C71.6183 23.0059 72.5115 23.1927 73.2635 23.5664C74.0154 23.9355 74.5965 24.4847 75.0066 25.2139C75.4168 25.9385 75.6219 26.8363 75.6219 27.9072ZM73.9129 27.9551C73.9129 27.1348 73.783 26.4603 73.5232 25.9316C73.268 25.403 72.8898 25.0111 72.3885 24.7559C71.8917 24.4961 71.2788 24.3662 70.5496 24.3662H69.1482V31.626H70.3103C71.518 31.626 72.4204 31.3184 73.0174 30.7031C73.6144 30.0879 73.9129 29.1719 73.9129 27.9551ZM84.8353 33H79.1752V23.0059H84.8353V24.3867H80.8158V27.1006H84.5824V28.4746H80.8158V31.6123H84.8353V33ZM91.3008 23.0059C92.5905 23.0059 93.5316 23.2702 94.124 23.7988C94.7165 24.3275 95.0127 25.068 95.0127 26.0205C95.0127 26.4535 94.9443 26.8659 94.8076 27.2578C94.6755 27.6452 94.4567 27.9893 94.1514 28.29C93.846 28.5863 93.4427 28.821 92.9414 28.9941C92.4447 29.1673 91.8317 29.2539 91.1025 29.2539H90.0361V33H88.3955V23.0059H91.3008ZM91.1914 24.3662H90.0361V27.8867H90.9316C91.4466 27.8867 91.8841 27.8275 92.2441 27.709C92.6042 27.5859 92.8776 27.3923 93.0644 27.1279C93.2513 26.8636 93.3447 26.515 93.3447 26.082C93.3447 25.5033 93.1693 25.0726 92.8184 24.79C92.472 24.5075 91.9297 24.3662 91.1914 24.3662ZM98.4088 33V23.0059H100.049V31.6055H104.295V33H98.4088ZM116.297 27.9893C116.297 28.7594 116.199 29.4613 116.003 30.0947C115.812 30.7236 115.522 31.266 115.135 31.7217C114.748 32.1729 114.262 32.5215 113.679 32.7676C113.096 33.0137 112.412 33.1367 111.628 33.1367C110.831 33.1367 110.138 33.0137 109.55 32.7676C108.967 32.5215 108.481 32.1706 108.094 31.7148C107.711 31.2591 107.424 30.7145 107.233 30.0811C107.041 29.4476 106.946 28.7458 106.946 27.9756C106.946 26.9456 107.114 26.0479 107.451 25.2822C107.793 24.512 108.31 23.915 109.003 23.4912C109.7 23.0628 110.58 22.8486 111.642 22.8486C112.681 22.8486 113.544 23.0605 114.233 23.4844C114.921 23.9082 115.436 24.5052 115.778 25.2754C116.124 26.041 116.297 26.9456 116.297 27.9893ZM108.668 27.9893C108.668 28.7594 108.773 29.4271 108.983 29.9922C109.192 30.5527 109.514 30.9857 109.946 31.291C110.384 31.5918 110.945 31.7422 111.628 31.7422C112.316 31.7422 112.877 31.5918 113.31 31.291C113.743 30.9857 114.062 30.5527 114.267 29.9922C114.472 29.4271 114.574 28.7594 114.574 27.9893C114.574 26.818 114.34 25.902 113.87 25.2412C113.405 24.5758 112.663 24.2432 111.642 24.2432C110.958 24.2432 110.395 24.3936 109.953 24.6943C109.516 24.9951 109.192 25.4258 108.983 25.9863C108.773 26.5423 108.668 27.21 108.668 27.9893ZM122.674 27.5654L125.046 23.0059H126.816L123.494 29.1172V33H121.86V29.1787L118.531 23.0059H120.315L122.674 27.5654ZM138.031 33H136.384V24.4004H133.458V23.0059H140.95V24.4004H138.031V33ZM152.754 27.9893C152.754 28.7594 152.657 29.4613 152.461 30.0947C152.269 30.7236 151.98 31.266 151.592 31.7217C151.205 32.1729 150.72 32.5215 150.136 32.7676C149.553 33.0137 148.869 33.1367 148.086 33.1367C147.288 33.1367 146.595 33.0137 146.007 32.7676C145.424 32.5215 144.939 32.1706 144.551 31.7148C144.169 31.2591 143.881 30.7145 143.69 30.0811C143.499 29.4476 143.403 28.7458 143.403 27.9756C143.403 26.9456 143.572 26.0479 143.909 25.2822C144.251 24.512 144.768 23.915 145.461 23.4912C146.158 23.0628 147.037 22.8486 148.099 22.8486C149.138 22.8486 150.002 23.0605 150.69 23.4844C151.378 23.9082 151.893 24.5052 152.235 25.2754C152.581 26.041 152.754 26.9456 152.754 27.9893ZM145.126 27.9893C145.126 28.7594 145.23 29.4271 145.44 29.9922C145.65 30.5527 145.971 30.9857 146.404 31.291C146.841 31.5918 147.402 31.7422 148.086 31.7422C148.774 31.7422 149.334 31.5918 149.767 31.291C150.2 30.9857 150.519 30.5527 150.724 29.9922C150.929 29.4271 151.032 28.7594 151.032 27.9893C151.032 26.818 150.797 25.902 150.328 25.2412C149.863 24.5758 149.12 24.2432 148.099 24.2432C147.416 24.2432 146.853 24.3936 146.411 24.6943C145.973 24.9951 145.65 25.4258 145.44 25.9863C145.23 26.5423 145.126 27.21 145.126 27.9893ZM165.596 24.2568C165.118 24.2568 164.69 24.3434 164.311 24.5166C163.938 24.6898 163.621 24.9404 163.361 25.2686C163.101 25.5921 162.903 25.9863 162.766 26.4512C162.63 26.9115 162.561 27.431 162.561 28.0098C162.561 28.7845 162.671 29.4521 162.889 30.0127C163.108 30.5687 163.441 30.9971 163.887 31.2979C164.334 31.5941 164.899 31.7422 165.583 31.7422C166.007 31.7422 166.419 31.7012 166.82 31.6191C167.221 31.5371 167.636 31.4255 168.064 31.2842V32.6787C167.659 32.8382 167.248 32.9544 166.834 33.0273C166.419 33.1003 165.941 33.1367 165.398 33.1367C164.377 33.1367 163.53 32.9248 162.855 32.501C162.185 32.0771 161.684 31.4801 161.351 30.71C161.023 29.9398 160.859 29.0374 160.859 28.0029C160.859 27.2464 160.964 26.5537 161.174 25.9248C161.383 25.2959 161.689 24.7536 162.09 24.2979C162.491 23.8376 162.985 23.4844 163.573 23.2383C164.165 22.9876 164.842 22.8623 165.603 22.8623C166.105 22.8623 166.597 22.9193 167.08 23.0332C167.568 23.1426 168.019 23.2998 168.433 23.5049L167.859 24.8584C167.513 24.6943 167.151 24.5531 166.772 24.4346C166.394 24.3161 166.002 24.2568 165.596 24.2568ZM171.611 33V23.0059H173.251V31.6055H177.496V33H171.611ZM189.499 27.9893C189.499 28.7594 189.401 29.4613 189.205 30.0947C189.014 30.7236 188.724 31.266 188.337 31.7217C187.95 32.1729 187.464 32.5215 186.881 32.7676C186.298 33.0137 185.614 33.1367 184.83 33.1367C184.033 33.1367 183.34 33.0137 182.752 32.7676C182.169 32.5215 181.683 32.1706 181.296 31.7148C180.913 31.2591 180.626 30.7145 180.435 30.0811C180.243 29.4476 180.147 28.7458 180.147 27.9756C180.147 26.9456 180.316 26.0479 180.653 25.2822C180.995 24.512 181.512 23.915 182.205 23.4912C182.902 23.0628 183.782 22.8486 184.844 22.8486C185.883 22.8486 186.746 23.0605 187.435 23.4844C188.123 23.9082 188.638 24.5052 188.979 25.2754C189.326 26.041 189.499 26.9456 189.499 27.9893ZM181.87 27.9893C181.87 28.7594 181.975 29.4271 182.185 29.9922C182.394 30.5527 182.715 30.9857 183.148 31.291C183.586 31.5918 184.146 31.7422 184.83 31.7422C185.518 31.7422 186.079 31.5918 186.512 31.291C186.945 30.9857 187.264 30.5527 187.469 29.9922C187.674 29.4271 187.776 28.7594 187.776 27.9893C187.776 26.818 187.542 25.902 187.072 25.2412C186.607 24.5758 185.865 24.2432 184.844 24.2432C184.16 24.2432 183.597 24.3936 183.155 24.6943C182.718 24.9951 182.394 25.4258 182.185 25.9863C181.975 26.5423 181.87 27.21 181.87 27.9893ZM200.893 23.0059V29.4727C200.893 30.1699 200.745 30.7943 200.449 31.3457C200.157 31.8971 199.715 32.3346 199.123 32.6582C198.53 32.9772 197.785 33.1367 196.887 33.1367C195.607 33.1367 194.631 32.8018 193.962 32.1318C193.296 31.4574 192.963 30.5618 192.963 29.4453V23.0059H194.604V29.3018C194.604 30.1357 194.8 30.751 195.192 31.1475C195.584 31.5439 196.17 31.7422 196.949 31.7422C197.487 31.7422 197.924 31.6488 198.261 31.4619C198.603 31.2705 198.854 30.9925 199.013 30.6279C199.177 30.2588 199.259 29.8145 199.259 29.2949V23.0059H200.893ZM212.964 27.9072C212.964 29.0329 212.754 29.974 212.335 30.7305C211.916 31.4824 211.307 32.0498 210.51 32.4326C209.712 32.8109 208.751 33 207.625 33H204.85V23.0059H207.926C208.96 23.0059 209.854 23.1927 210.606 23.5664C211.358 23.9355 211.939 24.4847 212.349 25.2139C212.759 25.9385 212.964 26.8363 212.964 27.9072ZM211.255 27.9551C211.255 27.1348 211.125 26.4603 210.865 25.9316C210.61 25.403 210.232 25.0111 209.731 24.7559C209.234 24.4961 208.621 24.3662 207.892 24.3662H206.49V31.626H207.653C208.86 31.626 209.763 31.3184 210.36 30.7031C210.957 30.0879 211.255 29.1719 211.255 27.9551Z" fill="white"/>
<path d="M39.5565 17.1521C40.3104 17.5925 40.3101 18.676 39.556 19.116L27.5803 26.1018C27.2222 26.3107 26.7784 26.3107 26.4203 26.1018L14.4446 19.116C13.6904 18.676 13.6901 17.5925 14.444 17.1521L26.4197 10.157C26.7781 9.94766 27.2225 9.94766 27.5809 10.157L39.5565 17.1521Z" fill="#254D90"/>
<path d="M25.2381 44.2692C25.2381 45.1494 24.2761 45.6969 23.5123 45.2513L11.5658 38.2825C11.2153 38.078 11 37.7043 11 37.3004V23.3301C11 22.4499 11.962 21.9025 12.7258 22.348L24.6723 29.3168C25.0228 29.5213 25.2381 29.895 25.2381 30.2989V44.2692Z" fill="#254D90"/>
<path d="M28.7619 44.2692C28.7619 45.1494 29.7238 45.6969 30.4877 45.2513L42.4342 38.2825C42.7847 38.078 43 37.7043 43 37.3004V23.3301C43 22.4499 42.038 21.9025 41.2741 22.348L29.3277 29.3168C28.9772 29.5213 28.7619 29.895 28.7619 30.2989V44.2692Z" fill="#254D90"/>
</svg>
